<?xml version="1.0" encoding="utf-8" ?>
<svg baseProfile="tiny" height="100%" version="1.2" width="100%" xmlns="http://www.w3.org/2000/svg" xmlns:ev="http://www.w3.org/2001/xml-events" xmlns:xlink="http://www.w3.org/1999/xlink"><defs /><rect fill="none" height="536.6929" stroke="green" width="634.9606" x="0" y="0" /><rect fill="none" height="370.3937" stroke="green" width="468.6614" x="83.1496" y="83.1496" /><line stroke="green" x1="551.811" x2="551.811" y1="0" y2="83.1496" /><line stroke="green" x1="551.811" x2="551.811" y1="453.5433" y2="536.6929" /><line stroke="green" x1="83.1496" x2="83.1496" y1="536.6929" y2="453.5433" /><line stroke="green" x1="83.1496" x2="83.1496" y1="83.1496" y2="0" /><path d="M 83.1496062992122 0 L 95.64724409448773 -24.692913385826653 L 317.4803149606284 -209.88976377952653 L 539.313385826769 -24.692913385826653 L 551.8110236220446 0 L 589.6062992125956 7.5590551181102 L 589.6062992125956 75.590551181102 L 551.8110236220446 83.1496062992122 L 634.9606299212568 83.1496062992122 L 671.9999999999968 83.1496062992122 L 906.3307086614129 268.34645669291206 L 671.9999999999968 453.543307086612 L 634.9606299212568 453.543307086612 L 551.8110236220446 453.543307086612 L 589.6062992125956 461.1023622047222 L 589.6062992125956 529.1338582677139 L 551.8110236220446 536.6929133858241 L 551.8110236220446 536.6929133858241 L 539.313385826769 561.3858267716507 L 317.48031496062833 746.5826771653507 L 95.64724409448769 561.3858267716507 L 83.14960629921217 536.6929133858241 L 45.354330708661195 529.1338582677139 L 45.354330708661195 461.1023622047222 L 83.1496062992122 453.543307086612 L 0 453.543307086612 L -37.03937007873998 453.543307086612 L -271.37007874015615 268.3464566929121 L -37.03937007873998 83.14960629921222 L 0 83.14960629921222 L 83.1496062992122 83.1496062992122 L 45.354330708661195 75.590551181102 L 45.354330708661195 7.5590551181102 L 83.1496062992122 0 L 83.1496062992122 0" fill="none" stroke="red" /></svg>