<?xml version="1.0" encoding="utf-8" ?>
<svg baseProfile="tiny" height="100%" version="1.2" width="100%" xmlns="http://www.w3.org/2000/svg" xmlns:ev="http://www.w3.org/2001/xml-events" xmlns:xlink="http://www.w3.org/1999/xlink"><defs /><rect fill="none" height="536.6929" stroke="green" width="634.9606" x="271.3701" y="209.8898" /><rect fill="none" height="370.3937" stroke="green" width="468.6614" x="354.5197" y="293.0394" /><path d="M 354.51968503936837 209.88976377952653 L 367.0173228346439 185.1968503936999 L 588.8503937007845 0.0 L 810.6834645669252 185.1968503936999 L 823.1811023622007 209.88976377952653 L 823.1811023622007 293.0393700787387 L 906.3307086614129 293.0393700787387 L 943.370078740153 293.0393700787387 L 1177.700787401569 478.2362204724386 L 943.370078740153 663.4330708661386 L 906.3307086614129 663.4330708661386 L 823.1811023622007 663.4330708661386 L 823.1811023622007 746.5826771653507 L 810.6834645669252 771.2755905511773 L 588.8503937007845 956.4724409448772 L 367.01732283464383 771.2755905511773 L 354.5196850393683 746.5826771653507 L 354.51968503936837 663.4330708661386 L 271.37007874015615 663.4330708661386 L 234.33070866141617 663.4330708661386 L 0.0 478.2362204724386 L 234.33070866141617 293.0393700787388 L 271.37007874015615 293.0393700787388 L 354.51968503936837 293.0393700787387 L 354.51968503936837 209.88976377952653" fill="none" stroke="red" /></svg>