<?xml version="1.0" encoding="utf-8" ?>
<svg baseProfile="full" height="536.6929133858241mm" version="1.1" width="634.9606299212568mm" xmlns="http://www.w3.org/2000/svg" xmlns:ev="http://www.w3.org/2001/xml-events" xmlns:xlink="http://www.w3.org/1999/xlink"><defs /><rect fill="none" height="536.6929133858241" stroke="green" width="634.9606299212568" x="0" y="0" /><rect fill="none" height="370.3937007873998" stroke="green" width="468.6614173228324" x="83.1496062992122" y="83.14960629921217" /><path d="M 83.1496062992122 0 L 89.39842519684996 -24.692913385826653 L 317.4803149606284 -209.88976377952653 L 545.5622047244068 -24.692913385826653 L 551.8110236220446 0 L 551.8110236220446 83.1496062992122 L 634.9606299212568 83.1496062992122 L 649.7763779527528 83.1496062992122 L 884.107086614169 268.34645669291206 L 649.7763779527528 453.543307086612 L 634.9606299212568 453.543307086612 L 551.8110236220446 453.543307086612 L 551.8110236220446 536.6929133858241 L 545.5622047244068 561.3858267716507 L 317.48031496062833 746.5826771653507 L 89.39842519684993 561.3858267716507 L 83.14960629921217 536.6929133858241 L 83.1496062992122 453.543307086612 L 0 453.543307086612 L -14.81574803149599 453.543307086612 L -249.14645669291218 268.3464566929121 L -14.81574803149599 83.14960629921222 L 0 83.14960629921222 L 83.1496062992122 83.1496062992122 L 83.1496062992122 0" fill="none" stroke="red" /></svg>