<?xml version="1.0" encoding="utf-8" ?>
<svg baseProfile="tiny" height="100%" version="1.2" width="100%" xmlns="http://www.w3.org/2000/svg" xmlns:ev="http://www.w3.org/2001/xml-events" xmlns:xlink="http://www.w3.org/1999/xlink"><defs /><rect fill="none" height="221.1024" stroke="green" width="342.0472" x="0" y="0" /><rect fill="none" height="205.9843" stroke="green" width="326.9291" x="7.5591" y="7.5591" /><path d="M 7.5590551181102 0 L 16.27716535433063 -13.732283464566862 L 171.02362204724326 -116.72440944881834 L 325.77007874015595 -13.732283464566862 L 334.48818897637636 0 L 334.48818897637636 7.5590551181102 L 342.04724409448653 7.5590551181102 L 362.64566929133684 7.5590551181102 L 526.1102362204699 110.55118110236167 L 362.64566929133684 213.54330708661314 L 342.04724409448653 213.54330708661314 L 334.48818897637636 213.54330708661314 L 334.48818897637636 221.10236220472333 L 325.77007874015595 234.83464566929018 L 171.0236220472433 337.82677165354164 L 16.277165354330634 234.83464566929018 L 7.559055118110223 221.10236220472333 L 7.5590551181102 213.54330708661314 L 0 213.54330708661314 L -20.598425196850297 213.54330708661314 L -184.06299212598336 110.55118110236167 L -20.598425196850297 7.559055118110194 L 0 7.559055118110194 L 7.5590551181102 7.5590551181102 L 7.5590551181102 0" fill="none" stroke="red" /></svg>