<?xml version="1.0" encoding="utf-8" ?>
<svg baseProfile="tiny" height="100%" version="1.2" width="100%" xmlns="http://www.w3.org/2000/svg" xmlns:ev="http://www.w3.org/2001/xml-events" xmlns:xlink="http://www.w3.org/1999/xlink"><defs /><rect fill="none" height="221.1024" stroke="green" width="342.0472" x="184.063" y="116.7244" /><rect fill="none" height="205.9843" stroke="green" width="326.9291" x="191.622" y="124.2835" /><path d="M 191.62204724409355 116.72440944881834 L 200.340157480314 102.99212598425147 L 355.0866141732266 0.0 L 509.83307086613934 102.99212598425147 L 518.5511811023597 116.72440944881834 L 518.5511811023597 124.28346456692853 L 526.1102362204699 124.28346456692853 L 546.7086614173202 124.28346456692853 L 710.1732283464532 227.27559055118002 L 546.7086614173202 330.2677165354315 L 526.1102362204699 330.2677165354315 L 518.5511811023597 330.2677165354315 L 518.5511811023597 337.82677165354164 L 509.83307086613934 351.5590551181085 L 355.0866141732266 454.55118110236 L 200.340157480314 351.5590551181085 L 191.62204724409358 337.82677165354164 L 191.62204724409355 330.2677165354315 L 184.06299212598336 330.2677165354315 L 163.46456692913307 330.2677165354315 L 0.0 227.27559055118002 L 163.46456692913307 124.28346456692853 L 184.06299212598336 124.28346456692853 L 191.62204724409355 124.28346456692853 L 191.62204724409355 116.72440944881834" fill="none" stroke="red" /></svg>